<svg width="480" height="370" viewBox="0 0 480 370" xmlns="http://www.w3.org/2000/svg" font-family="monospace">

  <!-- Machine body -->
  <rect x="2" y="2" width="476" height="366" rx="20" ry="20" fill="#1a1a2e" stroke="#4a4a8a" stroke-width="3"/>

  <!-- Top header -->
  <rect x="2" y="2" width="476" height="54" rx="20" fill="#0f3460"/>
  <rect x="2" y="30" width="476" height="26" fill="#0f3460"/>
  <line x1="2" y1="56" x2="478" y2="56" stroke="#4a4a8a" stroke-width="2"/>
  <text x="240" y="26" text-anchor="middle" font-size="11" font-weight="bold" fill="#e94560" letter-spacing="3" font-family="monospace">// TECH.STACK //</text>
  <text x="240" y="46" text-anchor="middle" font-size="8" fill="#a0a0c0" letter-spacing="2" font-family="monospace">BILGE OZKAN · BUILD v2.0</text>

  <!-- Screen bezel: y=62, height=255, bottom=317 -->
  <rect x="16" y="62" width="448" height="255" rx="8" fill="#070714" stroke="#2a2a5a" stroke-width="2"/>

  <!-- Screen title -->
  <text x="240" y="76" text-anchor="middle" font-size="8" fill="#53d8fb" letter-spacing="2" font-family="monospace">▶ SELECT YOUR STACK ◀</text>

  <!-- AI / ML  label_y=81 badge_y=85 -->
  <text x="28" y="81" font-size="7" fill="#5a5a8a" letter-spacing="2" font-family="monospace">AI / ML</text>
  <rect x="28"  y="85" width="54" height="16" rx="3" fill="#2e1b5e" stroke="#5a3aaa" stroke-width="1"/>
  <text x="55"  y="97" text-anchor="middle" font-size="8" fill="#b89aff" font-family="monospace">Python</text>
  <rect x="88"  y="85" width="56" height="16" rx="3" fill="#2e1b5e" stroke="#5a3aaa" stroke-width="1"/>
  <text x="116" y="97" text-anchor="middle" font-size="8" fill="#b89aff" font-family="monospace">PyTorch</text>
  <rect x="150" y="85" width="74" height="16" rx="3" fill="#2e1b5e" stroke="#5a3aaa" stroke-width="1"/>
  <text x="187" y="97" text-anchor="middle" font-size="8" fill="#b89aff" font-family="monospace">scikit-learn</text>
  <rect x="230" y="85" width="60" height="16" rx="3" fill="#2e1b5e" stroke="#5a3aaa" stroke-width="1"/>
  <text x="260" y="97" text-anchor="middle" font-size="8" fill="#b89aff" font-family="monospace">OpenCV</text>
  <line x1="28" y1="111" x2="452" y2="111" stroke="#1a1a3a" stroke-width="1"/>

  <!-- LLM / GENAI  label_y=130 badge_y=134 -->
  <text x="28" y="130" font-size="7" fill="#5a5a8a" letter-spacing="2" font-family="monospace">LLM / GENAI</text>
  <rect x="28"  y="134" width="74" height="16" rx="3" fill="#0a2e26" stroke="#1d6e56" stroke-width="1"/>
  <text x="65"  y="146" text-anchor="middle" font-size="8" fill="#5dcaa5" font-family="monospace">LangChain</text>
  <rect x="108" y="134" width="74" height="16" rx="3" fill="#0a2e26" stroke="#1d6e56" stroke-width="1"/>
  <text x="145" y="146" text-anchor="middle" font-size="8" fill="#5dcaa5" font-family="monospace">LlamaIndex</text>
  <rect x="188" y="134" width="82" height="16" rx="3" fill="#0a2e26" stroke="#1d6e56" stroke-width="1"/>
  <text x="229" y="146" text-anchor="middle" font-size="8" fill="#5dcaa5" font-family="monospace">HuggingFace</text>
  <rect x="276" y="134" width="34" height="16" rx="3" fill="#0a2e26" stroke="#1d6e56" stroke-width="1"/>
  <text x="293" y="146" text-anchor="middle" font-size="8" fill="#5dcaa5" font-family="monospace">RAG</text>
  <rect x="316" y="134" width="72" height="16" rx="3" fill="#0a2e26" stroke="#1d6e56" stroke-width="1"/>
  <text x="352" y="146" text-anchor="middle" font-size="8" fill="#5dcaa5" font-family="monospace">Embeddings</text>
  <line x1="28" y1="160" x2="452" y2="160" stroke="#1a1a3a" stroke-width="1"/>

  <!-- VECTOR / SEARCH  label_y=179 badge_y=183 -->
  <text x="28" y="179" font-size="7" fill="#5a5a8a" letter-spacing="2" font-family="monospace">VECTOR / SEARCH</text>
  <rect x="28"  y="183" width="44" height="16" rx="3" fill="#0a1e3e" stroke="#1e5090" stroke-width="1"/>
  <text x="50"  y="195" text-anchor="middle" font-size="8" fill="#70b8f4" font-family="monospace">FAISS</text>
  <rect x="78"  y="183" width="66" height="16" rx="3" fill="#0a1e3e" stroke="#1e5090" stroke-width="1"/>
  <text x="111" y="195" text-anchor="middle" font-size="8" fill="#70b8f4" font-family="monospace">ChromaDB</text>
  <rect x="150" y="183" width="98" height="16" rx="3" fill="#0a1e3e" stroke="#1e5090" stroke-width="1"/>
  <text x="199" y="195" text-anchor="middle" font-size="8" fill="#70b8f4" font-family="monospace">Semantic Search</text>
  <line x1="28" y1="209" x2="452" y2="209" stroke="#1a1a3a" stroke-width="1"/>

  <!-- BACKEND  label_y=228 badge_y=232 -->
  <text x="28" y="228" font-size="7" fill="#5a5a8a" letter-spacing="2" font-family="monospace">BACKEND</text>
  <rect x="28"  y="232" width="58" height="16" rx="3" fill="#2e1208" stroke="#8a3a1a" stroke-width="1"/>
  <text x="57"  y="244" text-anchor="middle" font-size="8" fill="#f09977" font-family="monospace">FastAPI</text>
  <rect x="92"  y="232" width="64" height="16" rx="3" fill="#2e1208" stroke="#8a3a1a" stroke-width="1"/>
  <text x="124" y="244" text-anchor="middle" font-size="8" fill="#f09977" font-family="monospace">REST API</text>
  <rect x="162" y="232" width="78" height="16" rx="3" fill="#2a1a04" stroke="#7a5010" stroke-width="1"/>
  <text x="201" y="244" text-anchor="middle" font-size="8" fill="#efaa40" font-family="monospace">PostgreSQL</text>
  <rect x="246" y="232" width="48" height="16" rx="3" fill="#2a1a04" stroke="#7a5010" stroke-width="1"/>
  <text x="270" y="244" text-anchor="middle" font-size="8" fill="#efaa40" font-family="monospace">MySQL</text>
  <rect x="300" y="232" width="50" height="16" rx="3" fill="#2a1a04" stroke="#7a5010" stroke-width="1"/>
  <text x="325" y="244" text-anchor="middle" font-size="8" fill="#efaa40" font-family="monospace">MSSQL</text>
  <line x1="28" y1="258" x2="452" y2="258" stroke="#1a1a3a" stroke-width="1"/>

  <!-- DEVOPS / INFRA  label_y=277 badge_y=281 badge_bottom=297 -->
  <text x="28" y="277" font-size="7" fill="#5a5a8a" letter-spacing="2" font-family="monospace">DEVOPS / INFRA</text>
  <rect x="28"  y="281" width="50" height="16" rx="3" fill="#1a1a2a" stroke="#3a3a5a" stroke-width="1"/>
  <text x="53"  y="293" text-anchor="middle" font-size="8" fill="#a0a0c0" font-family="monospace">Docker</text>
  <rect x="84"  y="281" width="34" height="16" rx="3" fill="#1a1a2a" stroke="#3a3a5a" stroke-width="1"/>
  <text x="101" y="293" text-anchor="middle" font-size="8" fill="#a0a0c0" font-family="monospace">AWS</text>
  <rect x="124" y="281" width="30" height="16" rx="3" fill="#1a1a2a" stroke="#3a3a5a" stroke-width="1"/>
  <text x="139" y="293" text-anchor="middle" font-size="8" fill="#a0a0c0" font-family="monospace">Git</text>
  <rect x="160" y="281" width="42" height="16" rx="3" fill="#1a1a2a" stroke="#3a3a5a" stroke-width="1"/>
  <text x="181" y="293" text-anchor="middle" font-size="8" fill="#a0a0c0" font-family="monospace">Linux</text>
  <rect x="208" y="281" width="54" height="16" rx="3" fill="#0e2204" stroke="#3a6a10" stroke-width="1"/>
  <text x="235" y="293" text-anchor="middle" font-size="8" fill="#97c459" font-family="monospace">NumPy</text>
  <rect x="268" y="281" width="50" height="16" rx="3" fill="#0e2204" stroke="#3a6a10" stroke-width="1"/>
  <text x="293" y="293" text-anchor="middle" font-size="8" fill="#97c459" font-family="monospace">Pandas</text>
  <rect x="324" y="281" width="58" height="16" rx="3" fill="#2a0818" stroke="#7a2a50" stroke-width="1"/>
  <text x="353" y="293" text-anchor="middle" font-size="8" fill="#e890b8" font-family="monospace">Arduino</text>

  <!-- Bottom divider: screen bottom = 62+255 = 317, divider at 321 -->
  <line x1="16" y1="321" x2="464" y2="321" stroke="#2a2a5a" stroke-width="2"/>

  <!-- Controls: y=343 -->
  <circle cx="48" cy="343" r="13" fill="#2a2a5a" stroke="#4a4a8a" stroke-width="2"/>
  <circle cx="48" cy="343" r="6" fill="#6a6aaa"/>
  <text x="240" y="347" text-anchor="middle" font-size="6" fill="#3a3a6a" letter-spacing="1" font-family="monospace">INSERT COIN TO CONTINUE</text>
  <circle cx="396" cy="343" r="8" fill="#e94560" stroke="rgba(255,255,255,0.12)" stroke-width="2"/>
  <circle cx="420" cy="343" r="8" fill="#5dcaa5" stroke="rgba(255,255,255,0.12)" stroke-width="2"/>
  <circle cx="444" cy="343" r="8" fill="#53d8fb" stroke="rgba(255,255,255,0.12)" stroke-width="2"/>

</svg>
